# xmcd
#
# Track frame offsets:
#	150
#	24550
#	48825
#	74500
#	106650
#	133800
#	167550
#	191110
#	222675
#	255000
#
# Disc length: 3956 seconds
#
# Revision: 3
# Processed by: cddbd v1.5.1PL0 Copyright (c) Steve Scherf et al.
# Submitted via: EasyCDDAExtractor 7.1.0.1
#
DISCID=8b0f720a
DTITLE=Ghulam Ali - Great Ghazals
DYEAR=2002
DGENRE=Blues
TTITLE0=Main Nazar Se Pee Rahaa Hoon
TTITLE1=Ye Baathen Zoothi Baathen
TTITLE2=Patta Patta Boota Boota
TTITLE3=Roya Karenge Aap Bhi
TTITLE4=Kiyaa Hai PyarJise
TTITLE5=Jinke Honton Pe Hasee
TTITLE6=Musafir Chalthe Chalthe
TTITLE7=Kabhee Aah Lab Pe Machal Gayi
TTITLE8=Dilwaalon Kya Dekh Rahe Ho
TTITLE9=ChhedkarTazkira-E-Daur
EXTD=YEAR: 2002 ID3G:   0
EXTT0=
EXTT1=
EXTT2=
EXTT3=
EXTT4=
EXTT5=
EXTT6=
EXTT7=
EXTT8=
EXTT9=
PLAYORDER=
